<svg xmlns="http://www.w3.org/2000/svg" viewBox="0 0 256 256">
  <rect width="256" height="256" fill="#0a1628"/>
  <circle cx="128" cy="128" r="90" fill="none" stroke="#2a3f5f" stroke-width="2"/>
  <path d="M128 48 L138 68 L128 58 L118 68 Z" fill="#e8e8e8"/>
  <circle cx="128" cy="128" r="70" fill="none" stroke="#3a4f6f" stroke-width="1.5"/>
  <g transform="rotate(0 128 128)">
    <path d="M128 58 L135 75 L128 70 L121 75 Z" fill="#dc143c"/>
  </g>
  <g transform="rotate(72 128 128)">
    <path d="M128 58 L135 75 L128 70 L121 75 Z" fill="#4169e1"/>
  </g>
  <g transform="rotate(144 128 128)">
    <path d="M128 58 L135 75 L128 70 L121 75 Z" fill="#ffffff"/>
  </g>
  <g transform="rotate(216 128 128)">
    <path d="M128 58 L135 75 L128 70 L121 75 Z" fill="#ffd700"/>
  </g>
  <g transform="rotate(288 128 128)">
    <path d="M128 58 L135 75 L128 70 L121 75 Z" fill="#228b22"/>
  </g>
  <rect x="88" y="88" width="80" height="80" rx="8" fill="#0a1628" stroke="#3a4f6f" stroke-width="2"/>
  <text x="128" y="148" font-family="Arial, sans-serif" font-size="52" font-weight="bold" fill="#e8e8e8" text-anchor="middle">NJ</text>
  <circle cx="128" cy="128" r="4" fill="#dc143c"/>
</svg>